<svg xmlns="http://www.w3.org/2000/svg" viewBox="0 0 300 300"><path fill="#f6f6f6" d="M118.8 15.6c20.79-4.76 42.71-4.73 63.45.26 28.49 6.83 54.64 23.04 73.35 45.6 14.61 17.37 24.76 38.44 29.29 60.68 3.65 17.76 3.54 36.18.33 54-.58 1.86-.83 3.81-1.35 5.69-.59 2.39-1.13 4.81-1.93 7.15-.49 1.75-1.05 3.47-1.64 5.18-.37.97-.71 1.95-1.01 2.94-.49 1.28-.98 2.57-1.54 3.82-1 2.77-2.31 5.42-3.44 8.15-.93 1.55-1.59 3.24-2.51 4.79-.84 1.78-1.75 3.53-2.91 5.11-.27.49-.8 1.46-1.06 1.95-5.06 8.33-10.93 16.19-17.7 23.21-1.94 2.07-3.92 4.09-6.02 5.99-7.59 7.2-16.03 13.59-25.17 18.67-2.86 1.95-5.98 3.47-9.11 4.92-2.26 1.14-4.55 2.24-6.95 3.04a36.43 36.43 0 0 1-5.01 2.07c-.99.35-1.97.71-2.94 1.07-1.02.33-2.05.64-3.07.95-2.23.96-4.63 1.47-6.97 2.05-1.31.47-2.67.7-4.03.93-1.66.77-3.5.82-5.3.88l-.03.64a88.8 88.8 0 0 0-5.64.51c-9.79 2-20 .29-29.84 1.36-3.23-1.09-6.74-.22-9.96-1.33-3.72-.33-7.41-1.01-11.01-2.05-1.34-.22-2.68-.49-3.95-.97-1.36-.25-2.74-.44-3.99-1.04-1.04-.25-2.06-.56-3.05-.93-1.01-.33-2.01-.66-3.02-.99-.98-.35-1.97-.7-2.95-1.05-1.71-.57-3.37-1.29-5-2.05-45.48-18.29-79.11-62.82-84.01-111.64-4.7-39.07 8.72-79.76 35.5-108.56C67.19 36.3 92 21.84 118.8 15.6m19.55 27.84c.04 7.34-.08 14.68-.01 22.02-.65.01-1.96.02-2.61.03.04-5.19-.07-10.39.11-15.57-1.8.01-3.6.02-5.4.02.1 19.77-.09 39.54.1 59.31 1.65-.01 3.3-.03 4.96-.04.01 16.89-.1 33.78.07 50.66 10.82-.43 21.67.18 32.49-.32-.03-16.78.04-33.55-.02-50.33l4.98-.03c0-13.72 0-27.44.02-41.16-.23-6.03-.44-12.06-.23-18.09-1.77-.05-3.54-.11-5.31-.18.03 5.24.02 10.48.03 15.73-.6.01-1.8.04-2.4.05-.03-7.35.04-14.7-.03-22.05-1.62-.01-3.24-.03-4.86-.05.49 7.32-.18 14.63-.42 21.94-.42.11-1.26.32-1.68.42.17-7.46-.71-14.9-.46-22.36-1.55.01-3.09.02-4.64.02-.22 7.36-.08 14.72-.1 22.07l-2.58-.04c.04-7.35-.01-14.7.04-22.05-1.56.01-3.12.01-4.67.01.05 7.35 0 14.7.04 22.05-.68 0-2.02.02-2.7.03-.01-7.36.06-14.71-.03-22.07-1.56 0-3.13-.01-4.69-.02m-91.33 99.57c-2.6 24.91 4.46 50.64 19.2 70.86 15.48 21.59 39.62 36.71 65.81 41.22 17.83 2.98 36.49 1.57 53.48-4.72 22.68-8.22 42.21-24.71 54.17-45.64 13.37-23.09 17.24-51.46 10.48-77.27-6-23.88-21.07-45.17-41.22-59.24-6.26 6.23-12.41 12.57-18.68 18.77 17.52 10.73 30.75 28.52 35.24 48.64 3.58 14.51 2.53 30.05-2.56 44.08-5.59 15.52-16.33 29.12-30.09 38.2-15.93 10.65-35.95 15.04-54.87 11.96-18.52-2.79-35.82-12.7-47.71-27.16-9.17-11.01-15.22-24.65-17.05-38.87-.26-6.94-.25-13.9-.01-20.83 2.72-23 16.87-44.03 36.57-56.01-6.28-6.25-12.51-12.54-18.8-18.77-24.57 17-41.25 44.97-43.96 74.78z"/><g fill="#2195f1"><path d="M138.35 43.44c1.56.01 3.13.02 4.69.02.09 7.36.02 14.71.03 22.07.68-.01 2.02-.03 2.7-.03-.04-7.35.01-14.7-.04-22.05 1.55 0 3.11 0 4.67-.01-.05 7.35 0 14.7-.04 22.05l2.58.04c.02-7.35-.12-14.71.1-22.07 1.55 0 3.09-.01 4.64-.02-.25 7.46.63 14.9.46 22.36.42-.1 1.26-.31 1.68-.42.24-7.31.91-14.62.42-21.94 1.62.02 3.24.04 4.86.05.07 7.35 0 14.7.03 22.05.6-.01 1.8-.04 2.4-.05-.01-5.25 0-10.49-.03-15.73 1.77.07 3.54.13 5.31.18-.21 6.03 0 12.06.23 18.09-.02 13.72-.02 27.44-.02 41.16l-4.98.03c.06 16.78-.01 33.55.02 50.33-10.82.5-21.67-.11-32.49.32-.17-16.88-.06-33.77-.07-50.66-1.66.01-3.31.03-4.96.04-.19-19.77 0-39.54-.1-59.31 1.8 0 3.6-.01 5.4-.02-.18 5.18-.07 10.38-.11 15.57.65-.01 1.96-.02 2.61-.03-.07-7.34.05-14.68.01-22.02z"/><path d="M47.02 143.01c2.71-29.81 19.39-57.78 43.96-74.78 6.29 6.23 12.52 12.52 18.8 18.77-19.7 11.98-33.85 33.01-36.57 56.01-.24 6.93-.25 13.89.01 20.83 1.83 14.22 7.88 27.86 17.05 38.87 11.89 14.46 29.19 24.37 47.71 27.16 18.92 3.08 38.94-1.31 54.87-11.96 13.76-9.08 24.5-22.68 30.09-38.2 5.09-14.03 6.14-29.57 2.56-44.08-4.49-20.12-17.72-37.91-35.24-48.64 6.27-6.2 12.42-12.54 18.68-18.77 20.15 14.07 35.22 35.36 41.22 59.24 6.76 25.81 2.89 54.18-10.48 77.27-11.96 20.93-31.49 37.42-54.17 45.64-16.99 6.29-35.65 7.7-53.48 4.72-26.19-4.51-50.33-19.63-65.81-41.22-14.74-20.22-21.8-45.95-19.2-70.86z"/></g></svg>